<?xml version="1.0" encoding="utf-8"?>
<!-- Generator: Adobe Illustrator 23.0.4, SVG Export Plug-In . SVG Version: 6.00 Build 0)  -->
<svg version="1.1" id="Layer_1" xmlns="http://www.w3.org/2000/svg" xmlns:xlink="http://www.w3.org/1999/xlink" x="0px" y="0px"
	 viewBox="0 0 300 300" style="enable-background:new 0 0 300 300;" xml:space="preserve">
<style type="text/css">
	.st0{fill:#FFFFFF;}
</style>
<g>
	<path class="st0" d="M144.4,64.1l-63.8,44.2c0,0-0.1,0-0.1,0H45.1c-4.5,0-8.1,3.7-8.1,8.1v66.9c0,4.5,3.7,8.1,8.1,8.1h35.3l64,44.4
		c3.7,2.6,6.7,1,6.7-3.5V67.6C151.1,63.2,148.1,61.6,144.4,64.1z"/>
	<path class="st0" d="M230.8,150l23.6-23.6c3.6-3.6,3.6-9.4,0-12.9c-3.6-3.6-9.4-3.6-12.9,0l-23.6,23.6l-23.6-23.6
		c-3.6-3.6-9.4-3.6-12.9,0c-3.6,3.6-3.6,9.4,0,12.9l23.6,23.6l-23.6,23.6c-3.6,3.6-3.6,9.4,0,12.9c1.8,1.8,4.1,2.7,6.5,2.7
		c2.3,0,4.7-0.9,6.5-2.7l23.6-23.6l23.6,23.6c1.8,1.8,4.1,2.7,6.5,2.7c2.3,0,4.7-0.9,6.5-2.7c3.6-3.6,3.6-9.4,0-12.9L230.8,150z"/>
</g>
</svg>
