<?xml version="1.0" encoding="UTF-8" standalone="no"?>
<svg
   xmlns:dc="http://purl.org/dc/elements/1.1/"
   xmlns:cc="http://creativecommons.org/ns#"
   xmlns:rdf="http://www.w3.org/1999/02/22-rdf-syntax-ns#"
   xmlns:svg="http://www.w3.org/2000/svg"
   xmlns="http://www.w3.org/2000/svg"
   viewBox="0 0 480 480"
   height="480"
   width="480"
   xml:space="preserve"
   id="svg2"
   version="1.1"><metadata
     id="metadata8"><rdf:RDF><cc:Work
         rdf:about=""><dc:format>image/svg+xml</dc:format><dc:type
           rdf:resource="http://purl.org/dc/dcmitype/StillImage" /></cc:Work></rdf:RDF></metadata><defs
     id="defs6"><clipPath
       id="clipPath18"
       clipPathUnits="userSpaceOnUse"><path
         id="path16"
         d="M 0,360 H 360 V 0 H 0 Z" /></clipPath></defs><g
     transform="matrix(1.3333333,0,0,-1.3333333,0,480)"
     id="g10"><g
       id="g12"><g
         clip-path="url(#clipPath18)"
         id="g14"><g
           transform="translate(253.6143,226.5674)"
           id="g20"><path
             id="path22"
             style="fill:#ffffff;fill-opacity:1;fill-rule:nonzero;stroke:none"
             d="M 0,0 C -0.732,0.303 -1.576,0.136 -2.136,-0.425 L -24.959,-23.248 H -51.7 c -1.082,0 -1.96,-0.877 -1.96,-1.96 v -42.719 c 0,-1.083 0.878,-1.96 1.96,-1.96 h 26.741 L -2.136,-92.71 c 0.375,-0.375 0.876,-0.574 1.386,-0.574 0.253,0 0.507,0.049 0.75,0.149 0.731,0.304 1.209,1.018 1.209,1.811 V -1.811 C 1.209,-1.018 0.731,-0.303 0,0" /></g><g
           transform="translate(282.3174,181.8618)"
           id="g24"><path
             id="path26"
             style="fill:#ffffff;fill-opacity:1;fill-rule:nonzero;stroke:none"
             d="m 0,0 8.431,8.43 c 0.367,0.368 0.574,0.866 0.574,1.386 0,0.519 -0.207,1.018 -0.574,1.386 l -2.677,2.676 c -0.766,0.766 -2.006,0.766 -2.772,0 l -8.43,-8.43 -8.431,8.43 c -0.765,0.766 -2.006,0.766 -2.771,0 l -2.677,-2.676 c -0.367,-0.368 -0.574,-0.867 -0.574,-1.386 0,-0.52 0.207,-1.018 0.574,-1.386 L -10.896,0 -19.327,-8.43 c -0.367,-0.368 -0.574,-0.866 -0.574,-1.386 0,-0.519 0.207,-1.018 0.574,-1.386 l 2.677,-2.677 c 0.382,-0.382 0.884,-0.574 1.385,-0.574 0.502,0 1.003,0.192 1.386,0.574 l 8.431,8.43 8.43,-8.43 c 0.383,-0.382 0.884,-0.574 1.386,-0.574 0.501,0 1.003,0.192 1.386,0.574 l 2.677,2.677 c 0.367,0.368 0.574,0.867 0.574,1.386 0,0.52 -0.207,1.018 -0.574,1.386 z" /></g><g
           transform="translate(125.3188,226.5674)"
           id="g28"><path
             id="path30"
             style="fill:#ffffff;fill-opacity:1;fill-rule:nonzero;stroke:none"
             d="m 0,0 c -0.773,0.303 -1.663,0.136 -2.254,-0.425 l -24.091,-22.823 h -28.227 c -1.143,0 -2.069,-0.877 -2.069,-1.96 v -42.719 c 0,-1.083 0.926,-1.96 2.069,-1.96 h 28.227 L -2.254,-92.71 c 0.395,-0.375 0.924,-0.574 1.462,-0.574 0.267,0 0.536,0.049 0.792,0.149 0.773,0.304 1.277,1.018 1.277,1.811 V -1.811 C 1.277,-1.018 0.773,-0.303 0,0" /></g><g
           transform="translate(142.1089,201.2681)"
           id="g32"><path
             id="path34"
             style="fill:#ffffff;fill-opacity:1;fill-rule:nonzero;stroke:none"
             d="m 0,0 c -1.705,1.704 -4.479,1.704 -6.185,0 -1.703,-1.705 -1.703,-4.479 10e-4,-6.185 4.022,-4.022 6.237,-9.378 6.237,-15.083 0,-5.705 -2.215,-11.062 -6.238,-15.084 -1.703,-1.705 -1.703,-4.479 10e-4,-6.185 0.827,-0.825 1.924,-1.279 3.092,-1.279 1.168,0 2.265,0.454 3.092,1.28 C 11.727,-30.809 11.727,-11.728 0,0" /></g><g
           transform="translate(153.1792,212.8486)"
           id="g36"><path
             id="path38"
             style="fill:#ffffff;fill-opacity:1;fill-rule:nonzero;stroke:none"
             d="m 0,0 c -1.706,1.703 -4.479,1.702 -6.185,-0.001 -1.703,-1.706 -1.703,-4.479 10e-4,-6.184 7.11,-7.11 11.026,-16.58 11.026,-26.664 0,-10.084 -3.915,-19.552 -11.026,-26.663 -1.704,-1.705 -1.704,-4.479 0.001,-6.185 0.826,-0.825 1.924,-1.28 3.091,-1.28 1.168,0 2.266,0.455 3.092,1.281 C 18.112,-47.584 18.112,-18.113 0,0" /></g></g></g></g></svg>