<?xml version="1.0" encoding="utf-8"?>
<svg version="1.1" id="Layer_1" x="0px" y="0px" viewBox="0 0 653.3 58.9" style="enable-background:new 0 0 653.3 58.9;" xmlns="http://www.w3.org/2000/svg">
  <g>
    <g transform="matrix(1, 0, 0, 1, -2.897117, 9.777772)">
      <path d="M 218.187 4.139 L 218.187 -5.109 L 259.088 -5.109 L 259.088 4.139 L 244.108 4.139 L 244.108 44.779 L 233.166 44.779 L 233.166 4.139 L 218.187 4.139 Z" style=""/>
      <path d="M 335.804 -6.196 L 356.645 27.28 L 356.776 27.28 L 356.776 -6.196 L 367.066 -6.196 L 367.066 43.692 L 356.124 43.692 L 335.414 10.347 L 335.283 10.347 L 335.283 43.692 L 324.993 43.692 L 324.993 -6.196 L 335.804 -6.196 Z" style=""/>
      <text style="font-family: Arial, sans-serif; font-size: 10.1px; font-weight: 700; white-space: pre;" transform="matrix(7.702355, 0, 0, 7.479567, -969.718018, -99.309807)" x="159.704" y="19.556">G</text>
    </g>
    <g transform="matrix(1.87997, 0, 0, 1.87997, -815.101135, -14.976371)" style="">
      <path d="M636.1,15.7c-0.1-0.2-0.2-0.3-0.3-0.4c0,0,0,0,0,0h-0.7c0,0,0,0,0,0v2c0,0,0,0,0,0h-1.2c0,0,0,0,0,0V12c0,0,0,0,0,0 c1,0,2,0,3,0c0.4,0,0.8,0.1,1.1,0.4c0.3,0.2,0.5,0.5,0.6,0.9c0,0.1,0,0.3,0,0.4c0,0.3-0.1,0.6-0.3,0.9c-0.2,0.3-0.5,0.5-0.9,0.6 c0,0-0.1,0-0.1,0c0,0-0.1,0-0.1,0c0.5,0.7,0.9,1.4,1.4,2.1c0,0,0,0,0,0h-1.3c0,0,0,0,0,0C636.8,16.8,636.4,16.2,636.1,15.7z M635.1,14h1.7c0.1,0,0.2,0,0.2-0.1c0.2-0.1,0.2-0.3,0.2-0.4c0-0.2-0.2-0.3-0.4-0.3H636h-0.9c0,0,0,0,0,0L635.1,14 C635,14,635,14,635.1,14z"/>
      <path d="M631.8,14.6c0,2.4,1.9,4.4,4.4,4.4c1.1,0,2-0.4,2.8-1c1-0.8,1.6-2,1.6-3.4c0-2.4-2-4.4-4.4-4.4c-1.4,0-2.6,0.6-3.4,1.6 C632.2,12.6,631.8,13.6,631.8,14.6z M631.2,12.4c0.2-0.5,0.6-1,1-1.5c0.3-0.3,0.6-0.6,0.9-0.8c0.6-0.4,1.2-0.7,1.8-0.8 c0.2,0,0.4-0.1,0.6-0.1c0.1,0,0.2,0,0.4,0c0.1,0,0.2,0,0.3,0c0,0,0,0,0,0h0.1c0,0,0,0,0,0c0.1,0,0.1,0,0.2,0c0.1,0,0.2,0,0.4,0 c0.2,0,0.4,0.1,0.5,0.1c0.5,0.1,1.1,0.3,1.5,0.6c0.6,0.3,1.1,0.8,1.5,1.3c0.4,0.4,0.6,0.9,0.8,1.4c0.2,0.4,0.3,0.9,0.3,1.4 c0,0.1,0,0.3,0,0.4c0,0.2,0,0.3,0,0.5c0,0.1,0,0.3,0,0.4c0,0.2,0,0.3-0.1,0.5c-0.1,0.5-0.3,1-0.6,1.5c-0.4,0.7-0.8,1.2-1.4,1.7 c-0.5,0.4-1,0.7-1.6,0.9c-0.4,0.1-0.7,0.2-1.1,0.3c-0.1,0-0.3,0-0.4,0c-0.3,0-0.6,0-0.8,0c-0.2,0-0.3,0-0.5-0.1 c-0.4-0.1-0.8-0.2-1.2-0.4c-0.5-0.2-0.9-0.5-1.2-0.8c-0.3-0.3-0.6-0.6-0.9-1c-0.4-0.5-0.7-1.1-0.8-1.8c-0.1-0.2-0.1-0.4-0.1-0.7 c0-0.1,0-0.3,0-0.4c0-0.1,0-0.1,0-0.2c0,0,0,0,0,0v-0.1c0,0,0,0,0,0c0-0.2,0-0.3,0-0.5c0-0.2,0-0.3,0.1-0.5 C630.9,13.2,631,12.8,631.2,12.4z"/>
    </g>
  </g>
</svg>