<?xml version="1.0" encoding="utf-8"?>
<!-- Generator: Adobe Illustrator 23.0.4, SVG Export Plug-In . SVG Version: 6.00 Build 0)  -->
<svg version="1.1" id="Layer_1" xmlns="http://www.w3.org/2000/svg" xmlns:xlink="http://www.w3.org/1999/xlink" x="0px" y="0px"
	 viewBox="0 0 300 300" style="enable-background:new 0 0 300 300;" xml:space="preserve">
<style type="text/css">
	.st0{fill:#FFFFFF;}
</style>
<g>
	<path class="st0" d="M118.5,53.7L118.5,53.7c-9.7,0-17.6,7.9-17.6,17.6v158.3c0,9.7,7.9,17.6,17.6,17.6h0c9.7,0,17.6-7.9,17.6-17.6
		V71.4C136.2,61.7,128.2,53.7,118.5,53.7z"/>
	<path class="st0" d="M185.5,53.7L185.5,53.7c-9.7,0-17.6,7.9-17.6,17.6v158.3c0,9.7,7.9,17.6,17.6,17.6h0c9.7,0,17.6-7.9,17.6-17.6
		V71.4C203.1,61.7,195.2,53.7,185.5,53.7z"/>
</g>
</svg>
