<?xml version="1.0" encoding="utf-8"?>
<!-- Generator: Adobe Illustrator 23.0.4, SVG Export Plug-In . SVG Version: 6.00 Build 0)  -->
<svg version="1.1"
	 id="svg2" xmlns:cc="http://creativecommons.org/ns#" xmlns:dc="http://purl.org/dc/elements/1.1/" xmlns:rdf="http://www.w3.org/1999/02/22-rdf-syntax-ns#" xmlns:svg="http://www.w3.org/2000/svg"
	 xmlns="http://www.w3.org/2000/svg" xmlns:xlink="http://www.w3.org/1999/xlink" x="0px" y="0px" viewBox="0 0 480 480"
	 style="enable-background:new 0 0 480 480;" xml:space="preserve">
<style type="text/css">
	.st0{fill:#FFFFFF;}
</style>
<g>
	<path class="st0" d="M302,153.5L302,153.5c-7.8,0-14.1,6.3-14.1,14.1v126.6c0,7.8,6.3,14.1,14.1,14.1l0,0c7.8,0,14.1-6.3,14.1-14.1
		V167.7C316.2,159.9,309.8,153.5,302,153.5z"/>
	<path class="st0" d="M355.6,153.5L355.6,153.5c-7.8,0-14.1,6.3-14.1,14.1v126.6c0,7.8,6.3,14.1,14.1,14.1l0,0
		c7.8,0,14.1-6.3,14.1-14.1V167.7C369.7,159.9,363.4,153.5,355.6,153.5z"/>
</g>
<path class="st0" d="M215.1,223.2l-95-54.8c-10.2-5.8-23,1.5-23,13.3v109.6c0,11.8,12.7,19.1,23,13.3l95-54.8
	C225.2,243.8,225.2,229.1,215.1,223.2z"/>
</svg>
