<?xml version="1.0" encoding="utf-8"?>
<!-- Generator: Adobe Illustrator 22.1.0, SVG Export Plug-In . SVG Version: 6.00 Build 0)  -->
<svg version="1.1" id="Layer_1" width="24" xmlns="http://www.w3.org/2000/svg" xmlns:xlink="http://www.w3.org/1999/xlink" x="0px" y="0px"
	 viewBox="0 0 24 16.7" style="enable-background:new 0 0 24 16.7;" xml:space="preserve">
<style type="text/css">
	.st0{fill:#B2B2B2;}
	.st1{fill:none;}
	.st2{fill:#ffffff;}
</style>
<polygon class="st0" points="-24.7,16.7 -40,1.4 -55.3,16.7 -56,16 -40,0 -24,16 "/>
<polygon class="st1" points="0.7,13.1 1,12.7 0.7,13 "/>
<polygon class="st1" points="23.3,13.1 23.3,13 23,12.7 "/>
<polygon class="st2" points="23.3,13.1 23,12.7 12,1.4 1,12.7 0.7,13.1 0.7,13 0,13.7 0,16.7 24,16.7 24,13.7 23.3,13 "/>
<polygon class="st0" points="12,0 0,12.3 0,13.7 0.7,13 1,12.7 12,1.4 23,12.7 23.3,13 24,13.7 24,12.3 "/>
</svg>
