<?xml version="1.0" encoding="utf-8"?>
<!-- Generator: Adobe Illustrator 23.0.4, SVG Export Plug-In . SVG Version: 6.00 Build 0)  -->
<svg version="1.1" id="Layer_1" xmlns="http://www.w3.org/2000/svg" xmlns:xlink="http://www.w3.org/1999/xlink" x="0px" y="0px"
	 viewBox="0 0 300 300" style="enable-background:new 0 0 300 300;" xml:space="preserve">
<style type="text/css">
	.st0{fill:#FFFFFF;}
</style>
<g>
	<path class="st0" d="M231.5,75.1c-2.9-2.9-7.5-2.9-10.4,0c-1.4,1.4-2.2,3.3-2.2,5.2s0.7,3.8,2.2,5.2c17.2,17.2,26.7,40.1,26.7,64.5
		c0,24.3-9.5,47.2-26.7,64.5c-2.9,2.9-2.9,7.5,0,10.4c2.9,2.9,7.5,2.9,10.4,0c10.1-10.1,17.9-21.9,23.3-35
		c5.2-12.7,7.8-26.1,7.8-39.8c0-13.7-2.6-27.2-7.8-39.8C249.5,97,241.6,85.2,231.5,75.1z"/>
	<path class="st0" d="M207.1,95.9c-2.9-2.9-7.5-2.9-10.4,0c-1.4,1.4-2.2,3.3-2.2,5.2c0,1.9,0.7,3.8,2.2,5.2
		c11.7,11.7,18.1,27.2,18.1,43.7c0,16.5-6.4,32-18.1,43.7c-2.9,2.9-2.9,7.5,0,10.4c2.9,2.9,7.5,2.9,10.4,0
		c14.5-14.5,22.4-33.7,22.4-54.1C229.5,129.5,221.5,110.3,207.1,95.9z"/>
	<path class="st0" d="M181.3,150c0,7.3-2.8,14.2-8,19.3c-1.4,1.4-2.2,3.3-2.2,5.2c0,1.9,0.7,3.8,2.2,5.2c2.9,2.9,7.5,2.9,10.4,0
		c8-8,12.3-18.5,12.3-29.8c0-11.2-4.4-21.8-12.3-29.8c-2.9-2.9-7.5-2.9-10.4,0c-2.9,2.9-2.9,7.5,0,10.4
		C178.5,135.8,181.3,142.7,181.3,150z"/>
	<path class="st0" d="M144.4,64.1l-63.8,44.2c0,0-0.1,0-0.1,0H45c-4.5,0-8.1,3.7-8.1,8.1v66.9c0,4.5,3.7,8.1,8.1,8.1h35.3l64,44.4
		c3.7,2.6,6.7,1,6.7-3.5V67.6C151.1,63.1,148.1,61.5,144.4,64.1z"/>
</g>
</svg>
