<?xml version="1.0" encoding="utf-8"?>
<!-- Generator: Adobe Illustrator 21.1.0, SVG Export Plug-In . SVG Version: 6.00 Build 0)  -->
<svg version="1.1" id="Layer_1" xmlns="http://www.w3.org/2000/svg" xmlns:xlink="http://www.w3.org/1999/xlink" x="0px" y="0px"
	 viewBox="0 0 32 32" style="enable-background:new 0 0 32 32;" xml:space="preserve" width="22" height="22">
<style type="text/css">
	.st0{fill:#B6A990;}
</style>
<polygon class="st0" points="17.3,10.6 13.6,10.6 13.6,6.9 10.5,6.9 10.5,10.6 6.9,10.6 6.9,13.7 10.5,13.6 10.5,17.3 13.6,17.3 
	13.6,13.6 17.3,13.6 "/>
<path class="st0" d="M20.8,19c2.3-2.9,3.3-7,1.5-11.3c-1.9-4.1-5.7-6.6-9.9-6.7C6.5,0.8,1.1,5.8,0.9,11.8C0.8,16,3,19.9,7,22.1
	c4.4,2.1,8.5,1.3,11.6-1l9.6,10.2l2.2-2.1L20.8,19z M12.6,20.1c-4.4,0.3-8.2-3.1-8.5-7.5s3.1-8.2,7.5-8.5s8.2,3.1,8.5,7.5
	S17,19.8,12.6,20.1z"/>
</svg>
